<svg class="svgOrigin" xmlns="http://www.w3.org/2000/svg" width="400" height="400" x="0px" y="0px" viewBox="0 0 400 400" enable-background="new 0 0 400 400">
<g>
	<path d="M250.800797,74.257805c0,28.068901-22.731506,50.834-50.800797,50.834c-28.068802,0-50.866699-22.765099-50.866699-50.834
		c0-28.068806,22.797897-50.833996,50.866699-50.833996C228.06929,23.423809,250.800797,46.188999,250.800797,74.257805z"/>
	<path d="M105.646004,325.709015c0,28.069275-22.797905,50.86618-50.866703,50.86618
		c-28.068901,0-50.800781-22.796906-50.800781-50.86618c0-28.06842,22.73188-50.800812,50.800781-50.800812
		C82.848099,274.908203,105.646004,297.640594,105.646004,325.709015z"/>
	<path d="M396.021484,325.709015c0,28.069275-22.796906,50.86618-50.867188,50.86618
		c-28.069305,0-50.800812-22.796906-50.800812-50.86618c0-28.06842,22.731506-50.800812,50.800812-50.800812
		C373.224579,274.908203,396.021484,297.640594,396.021484,325.709015z"/>
</g>
</svg>
