<svg class="svgOrigin" xmlns="http://www.w3.org/2000/svg" width="400" height="400" x="0px" y="0px" viewBox="0 0 400 400" enable-background="new 0 0 400 400">
<g>
	<line fill="none" stroke="#000000" stroke-width="17.122499" x1="109.220695" y1="389.912109" x2="291.231384" y2="234.304703"/>
	<line fill="none" stroke="#000000" stroke-width="17.122499" x1="291.231384" y1="389.912109" x2="109.220695" y2="234.304703"/>
	<line fill="none" stroke="#000000" stroke-width="17.122499" x1="90.124496" y1="234.304703" x2="307.383789" y2="234.304703"/>
	<line fill="none" stroke="#000000" stroke-width="17.122499" x1="200.233902" y1="234.304703" x2="200.233902" y2="187.318405"/>
	<path d="M96.035599,6.69581l7.165596,6.5215C92.340797,23.216309,84.7407,32.781208,80.401398,41.876999
		c-4.781799,9.999512-7.173401,21.938408-7.173401,35.85051c0,11.738297,2.391602,22.807701,7.173401,33.241699
		c4.339302,9.564499,11.9394,20.199295,22.799797,31.9375l-7.165596,7.156799
		c-10.860298-12.173401-18.894501-23.677299-24.111801-34.545898c-5.642998-11.738304-8.469196-24.313004-8.469196-37.7901
		c0-15.215801,2.826199-28.660099,8.469196-40.398399C76.7061,27.330109,84.7407,17.12991,96.035599,6.69581z"/>
	<path d="M127.346199,133.108414c39.96389-13.878906,61.032692-40.599106,63.206001-80.127907h-58.649399V38.633308h59.954086
		V4.08741h14.338409c4.338898,0.86959,4.548798,2.6084,0.652405,5.217299v29.328598h62.545883v14.347198H208.1436
		c9.112289,36.050697,31.285095,61.667397,66.466782,76.883797l-8.461975,15.617599
		c-30.43161-13.878403-51.926712-37.355392-64.517517-70.363197c-7.39119,35.616699-30.190491,60.163506-68.423889,73.640602
		L127.346199,133.108414z"/>
	<path d="M303.972687,150.063507l-7.190491-7.156799c10.869202-11.738205,18.460999-22.373001,22.807587-31.9375
		c4.783203-10.433998,7.190521-21.503403,7.190521-33.241699c0-13.912102-2.407318-25.850998-7.190521-35.85051
		c-4.346588-9.095791-11.938385-18.66069-22.807587-28.659689l7.190491-6.5215
		c11.270508,10.434099,19.329102,20.634298,24.111328,30.633299c5.61908,11.7383,8.460876,25.182598,8.460876,40.398399
		c0,13.477097-2.841797,26.051796-8.460876,37.7901C322.867188,126.386208,314.807587,137.890106,303.972687,150.063507z"/>
</g>
</svg>
