<svg class="svgOrigin" xmlns="http://www.w3.org/2000/svg" width="400" height="400" x="0px" y="0px" viewBox="0 0 400 400" enable-background="new 0 0 400 400">
<g>
	<path fill="none" stroke="#000000" stroke-width="12.2649" d="M43.287601,308.519501c0,0,74.07959,82.621124,156.700195,82.621124
		c82.644989,0,156.725098-82.621124,156.725098-82.621124"/>
	<polyline fill="none" stroke="#000000" stroke-width="12.2649" points="121.6436,308.519501 43.287601,308.519501 
		43.287601,386.876007 	"/>
	<polyline fill="none" stroke="#000000" stroke-width="12.2649" points="356.712891,386.876007 356.712891,308.519501 
		278.343781,308.519501 	"/>
	<line fill="none" stroke="#000000" stroke-width="12.2649" x1="199.987793" y1="84.840805" x2="199.987793" y2="391.140625"/>
	<path fill="none" stroke="#000000" stroke-width="12.2649" d="M237.04689,47.80621
		c0,20.4575-16.58989,37.034595-37.059097,37.034595c-20.445297,0-37.033691-16.577095-37.033691-37.034595
		c0-20.4571,16.588394-37.045898,37.033691-37.045898C220.457001,10.76031,237.04689,27.34911,237.04689,47.80621z"/>
	<line fill="none" stroke="#000000" stroke-width="12.2649" x1="157.971695" y1="130.439514" x2="242.030289" y2="130.439514"/>
	<line fill="none" stroke="#000000" stroke-width="12.2649" x1="157.971695" y1="160.358398" x2="242.030289" y2="160.358398"/>
</g>
</svg>
