<svg class="svgOrigin" xmlns="http://www.w3.org/2000/svg" width="400" height="400" x="0px" y="0px" viewBox="0 0 400 400" enable-background="new 0 0 400 400">
<g>
	<path fill="none" stroke="#000000" stroke-width="22.125" d="M320.228485,264.13089
		c0,66.417908-53.799805,120.260712-120.218185,120.260712c-66.407303,0-120.239799-53.842804-120.239799-120.260712
		c0-66.397491,53.832497-120.24028,120.239799-120.24028C266.42868,143.89061,320.228485,197.733398,320.228485,264.13089z"/>
	<line fill="none" stroke="#000000" stroke-width="22.125" x1="200.0103" y1="143.89061" x2="200.0103" y2="6.45211"/>
	<path d="M309.94339,68.289612c0,13.287994-10.759796,24.047798-24.069397,24.047798
		c-13.266602,0-24.026306-10.759804-24.026306-24.047798c0-13.288101,10.759705-24.047901,24.026306-24.047901
		C299.183594,44.241711,309.94339,55.001511,309.94339,68.289612z"/>
	<path d="M90.076698,68.289612c0,13.287994,10.770996,24.047798,24.047798,24.047798
		c13.277397,0,24.048401-10.759804,24.048401-24.047798c0-13.288101-10.771004-24.047901-24.048401-24.047901
		C100.847694,44.241711,90.076698,55.001511,90.076698,68.289612z"/>
</g>
</svg>
