<svg class="svgOrigin" xmlns="http://www.w3.org/2000/svg" width="400" height="400" x="0px" y="0px" viewBox="0 0 400 400" enable-background="new 0 0 400 400">
<g>
	<path fill="none" stroke="#000000" stroke-width="17.911501" d="M320.093781,200
		c0,66.328094-53.769592,120.132813-120.124084,120.132813c-66.346207,0-120.133293-53.804718-120.133293-120.132813
		c0-66.3638,53.787086-120.133293,120.133293-120.133293C266.324188,79.866707,320.093781,133.6362,320.093781,200z"/>
	<line fill="none" stroke="#000000" stroke-width="17.911501" x1="199.969696" y1="79.866707" x2="199.969696" y2="4.93211"/>
	<line fill="none" stroke="#000000" stroke-width="17.911501" x1="115.047394" y1="115.060104" x2="62.047401" y2="62.095207"/>
	<line fill="none" stroke="#000000" stroke-width="17.911501" x1="79.871597" y1="200" x2="4.93701" y2="200"/>
	<line fill="none" stroke="#000000" stroke-width="17.911501" x1="115.064896" y1="284.939514" x2="62.0825" y2="337.939514"/>
	<line fill="none" stroke="#000000" stroke-width="17.911501" x1="200.004898" y1="320.132813" x2="200.004898" y2="395.067383"/>
	<line fill="none" stroke="#000000" stroke-width="17.911501" x1="284.935486" y1="284.939514" x2="337.935486" y2="337.939514"/>
	<line fill="none" stroke="#000000" stroke-width="17.911501" x1="320.128906" y1="200" x2="395.063477" y2="200"/>
	<line fill="none" stroke="#000000" stroke-width="17.911501" x1="284.935486" y1="115.060104" x2="337.935486" y2="62.095207"/>
</g>
</svg>
