<svg class="svgOrigin" xmlns="http://www.w3.org/2000/svg" width="400" height="400" x="0px" y="0px" viewBox="0 0 400 400" enable-background="new 0 0 400 400">
<g>
	<line fill="none" stroke="#000000" stroke-width="16.359699" x1="113.265099" y1="384.406189" x2="287.165985" y2="235.730499"/>
	<line fill="none" stroke="#000000" stroke-width="16.359699" x1="287.165985" y1="384.406189" x2="113.265099" y2="235.730499"/>
	<line fill="none" stroke="#000000" stroke-width="16.359699" x1="95.019997" y1="235.730499" x2="302.599579" y2="235.730499"/>
	<line fill="none" stroke="#000000" stroke-width="16.359699" x1="200.223602" y1="235.730499" x2="200.223602" y2="190.837402"/>
	<path d="M100.667999,9.188l6.845695,6.23051c-10.376495,9.5537-17.637695,18.692299-21.783691,27.383297
		c-4.569405,9.553699-6.854004,20.960899-6.854004,34.252903c0,11.215286,2.284599,21.791496,6.854004,31.760696
		c4.145996,9.138702,11.407196,19.299294,21.783691,30.514702l-6.845695,6.837891
		C90.291,134.537109,82.6147,123.54541,77.629898,113.16111c-5.391602-11.215302-8.091797-23.2295-8.091797-36.1064
		c0-14.538101,2.700195-27.383301,8.091797-38.598602C82.199203,28.902309,89.875999,19.15671,100.667999,9.188z"/>
	<path d="M205.9189,7.94191v9.9687h59.135788v11.8228H205.9189v9.361797h46.067398v51.667h-12.460907v-2.49221h-8.084v12.42971
		h39.844711v11.8545h-39.844711v26.136696c0,5.815399-2.908203,8.723206-8.723602,8.723206h-16.175781l-1.86911-11.822296h11.814392
		c1.661102,0,2.492203-0.8311,2.492203-2.492203v-20.545403h-42.952194c5.815491,3.738297,11.830597,8.690903,18.0616,14.921402
		l-9.338409,9.9692c-7.476593-7.476501-14.737793-13.483902-21.791489-18.0532l6.845703-6.837402h-40.467804v-11.8545h89.642593
		v-12.42971h-57.889694v3.738312H148.6362V39.095207h44.82959V29.73341h-58.529297v-11.8228h58.529297V4.20311h11.830109
		C208.611298,4.61871,208.81839,5.86471,205.9189,7.94191z M161.089798,49.032707v9.361801h32.375992v-9.361801H161.089798z
		 M161.089798,68.331505v9.969307h32.375992v-9.969307H161.089798z M205.9189,58.394508h33.606491v-9.361801H205.9189V58.394508z
		 M205.9189,68.331505v9.969307h33.606491v-9.969307H205.9189z"/>
	<path d="M299.339783,146.167999l-6.86908-6.837891c10.383789-11.215408,17.637695-21.375999,21.790985-30.514702
		c4.569397-9.9692,6.870117-20.54541,6.870117-31.760696c0-13.292004-2.30072-24.699203-6.870117-34.252903
		c-4.15329-8.690998-11.407196-17.829597-21.790985-27.383297l6.86908-6.23051
		c10.768616,9.96871,18.468811,19.71431,23.038116,29.268108c5.368195,11.215302,8.083984,24.060501,8.083984,38.598602
		c0,12.8769-2.71579,24.891098-8.083984,36.1064C317.393585,123.54541,309.692383,134.537109,299.339783,146.167999z"/>
</g>
</svg>
