<svg class="svgOrigin" xmlns="http://www.w3.org/2000/svg" width="400" height="400" x="0px" y="0px" viewBox="0 0 400 400" enable-background="new 0 0 400 400">
<g>
	<path fill="none" stroke="#000000" stroke-width="12.1082" d="M43.101601,307.696289c0,0,74.186493,82.713867,156.910095,82.713867
		c82.723694,0,156.886688-82.713867,156.886688-82.713867"/>
	<polyline fill="none" stroke="#000000" stroke-width="12.1082" points="121.568794,307.696289 43.101601,307.696289 
		43.101601,386.15329 	"/>
	<polyline fill="none" stroke="#000000" stroke-width="12.1082" points="356.898376,386.15329 356.898376,307.696289 
		278.455078,307.696289 	"/>
	<line fill="none" stroke="#000000" stroke-width="12.1082" x1="200.011688" y1="83.753906" x2="200.011688" y2="390.410156"/>
	<path fill="none" stroke="#000000" stroke-width="12.1082" d="M237.093796,46.671909
		c0,20.48-16.6026,37.081997-37.082108,37.081997c-20.479996,0-37.080994-16.601997-37.080994-37.081997
		c0-20.4795,16.600998-37.0811,37.080994-37.0811C220.491196,9.59081,237.093796,26.19241,237.093796,46.671909z"/>
	<line fill="none" stroke="#000000" stroke-width="12.1082" x1="157.940399" y1="129.395996" x2="242.082993" y2="129.395996"/>
</g>
</svg>
