<svg class="svgOrigin" xmlns="http://www.w3.org/2000/svg" width="400" height="400" x="0px" y="0px" viewBox="0 0 400 400" enable-background="new 0 0 400 400">
<g>
	<path fill="none" stroke="#000000" stroke-width="16.749599" d="M354.610382,233.961899
		c20.120117,15.865204,31.864197,35.002914,31.864197,55.613297c0,54.926819-83.486298,99.450195-186.478989,99.450195
		c-102.983887,0-186.470184-44.523376-186.470184-99.450195c0-19.69339,10.746599-38.063492,29.279299-53.520493"/>
	<path fill="none" stroke="#000000" stroke-width="16.749599" d="M117.9814,324.448212c0,0,50.069397-71.054611-4.841805-137.284607
		C58.229,120.934105,109.917496,49.87941,109.917496,49.87941"/>
	<path fill="none" stroke="#000000" stroke-width="16.749599" d="M198.735794,317.987305c0,0,56.555206-72.674805-3.222092-145.3647
		c-59.7686-72.6744-8.080109-164.748093-8.080109-164.748093"/>
	<path fill="none" stroke="#000000" stroke-width="16.749599" d="M281.101593,319.606415
		c0,0,42.004791-59.768524-9.683594-132.44281c-51.6875-72.674301,3.239197-137.284195,3.239197-137.284195"/>
</g>
</svg>
