<svg class="svgOrigin" xmlns="http://www.w3.org/2000/svg" width="400" height="400" x="0px" y="0px" viewBox="0 0 400 400" enable-background="new 0 0 400 400">
<g>
	<path d="M248.658188,72.658211c0,26.882294-21.789993,48.671898-48.653793,48.671898
		c-26.882294,0-48.671906-21.789604-48.671906-48.671898s21.789612-48.672401,48.671906-48.672401
		C226.868195,23.985809,248.658188,45.775909,248.658188,72.658211z"/>
	<path d="M101.6343,327.341797c0,26.864288-21.789597,48.671906-48.662102,48.671906
		c-26.883299,0-48.672398-21.807617-48.672398-48.671906c0-26.881805,21.789101-48.671906,48.672398-48.671906
		C79.844704,278.669891,101.6343,300.459991,101.6343,327.341797z"/>
	<path d="M395.699188,327.341797c0,26.864288-21.789001,48.671906-48.65329,48.671906
		c-26.900421,0-48.690399-21.807617-48.690399-48.671906c0-26.881805,21.789978-48.671906,48.690399-48.671906
		C373.910187,278.669891,395.699188,300.459991,395.699188,327.341797z"/>
</g>
</svg>
