<svg class="svgOrigin" xmlns="http://www.w3.org/2000/svg" width="400" height="400" x="0px" y="0px" viewBox="0 0 400 400" enable-background="new 0 0 400 400">
<g>
	<line fill="none" stroke="#000000" stroke-width="10.1744" x1="146.800293" y1="392.425781" x2="254.967789" y2="299.961914"/>
	<line fill="none" stroke="#000000" stroke-width="10.1744" x1="254.967789" y1="392.425781" x2="146.800293" y2="299.961914"/>
	<line fill="none" stroke="#000000" stroke-width="10.1744" x1="135.453598" y1="299.961914" x2="264.545898" y2="299.961914"/>
	<line fill="none" stroke="#000000" stroke-width="10.1744" x1="200.88179" y1="299.961914" x2="200.88179" y2="272.041992"/>
	<path d="M238.275391,21.39941l-3.676804,3.9151c-5.642487-5.9419-11.02829-10.095301-16.174789-12.48
		c-5.624008-2.60351-12.355408-3.9146-20.194794-3.9146c-6.60791,0-12.857407,1.31109-18.729507,3.9146
		c-5.395493,2.3847-11.3862,6.5381-18.003906,12.48l-4.033691-3.9151c6.855499-5.9419,13.343796-10.3535,19.463898-13.1948
		c6.607895-3.08061,13.711899-4.6304,21.303207-4.6304c8.574692,0,16.160583,1.54979,22.777786,4.6304
		C226.63089,10.82711,232.3936,15.21921,238.275391,21.39941z"/>
	<path d="M172.882294,78.808609h-13.9599v-6.755898h13.9599V56.711411h-3.666504
		c-1.9673,4.510799-4.292496,8.564499-6.984787,12.122101l-4.769104-5.703602
		c5.136703-6.656799,8.564499-15.202202,10.283691-25.654301l7.710007,1.768501
		c0.974106,0.954098,0.615692,1.549801-1.103104,1.788597c-0.734802,3.079601-1.589294,6.0606-2.573196,8.902802h17.6362v6.775902
		h-9.180603v15.341301h13.9599v6.755898h-13.9599v7.849602c6.120102,5.46479,10.650803,10.572296,13.582001,15.321297
		l-5.503891,5.703102c-2.692902-4.2724-5.882309-8.664001-9.548813-13.175301
		c-2.2061,9.737801-7.3526,17.924797-15.430191,24.581596l-4.411606-6.775902
		c9.558105-7.829597,14.208496-17.686493,13.9599-29.569794V78.808609z M225.039993,108.755905h16.891602v6.776299H186.1064
		v-6.776299h31.959l4.034195-18.898499l8.445297,1.431198c0.994202,0.953606,0.616196,1.549805-1.091797,1.788101
		L225.039993,108.755905z M238.632797,52.081509h-45.908707V45.30521h45.908707V52.081509z M203.375,89.162109h-6.248993V62.415001
		h35.625v26.031807h-6.240311v-1.788597H203.375V89.162109z M207.776398,91.646507
		c2.4599,3.100098,4.288101,7.252899,5.520493,12.479004l-6.990295,2.483894
		c-1.708893-5.464897-3.428696-9.736801-5.136703-12.817406L207.776398,91.646507z M226.510696,68.11821H203.375v12.836899
		h23.135696V68.11821z"/>
	<path d="M158.186996,200.762711c22.534698-7.611313,34.408203-22.216812,35.629898-43.857407h-33.056198v-7.830093H194.5522
		v-18.897507h8.087387c2.445419,0.476608,2.563507,1.43071,0.36821,2.861404v16.036102h35.267593v7.830093h-34.532196
		c5.136703,19.732407,17.621094,33.762207,37.473602,42.068298l-4.789108,8.564499
		c-17.129791-7.610397-29.25679-20.4478-36.360794-38.510788c-4.163605,19.493683-17.020004,32.927795-38.571304,40.279297
		L158.186996,200.762711z"/>
	<path d="M157.461899,226.457001l4.033691-3.916c6.617706,5.942398,12.608414,10.095703,18.003906,12.460007
		c5.872101,2.623993,12.121597,3.934494,18.729507,3.934494c7.839386,0,14.570786-1.310501,20.194794-3.934494
		c5.1465-2.364304,10.532303-6.517609,16.174789-12.460007l3.676804,3.916c-5.88179,6.179703-11.644501,10.571304-17.2686,13.194397
		c-6.617203,3.080002-14.203094,4.630814-22.777786,4.630814c-7.591309,0-14.695313-1.550812-21.303207-4.630814
		C170.805695,236.789993,164.317398,232.398407,157.461899,226.457001z"/>
</g>
</svg>
