<svg class="svgOrigin" xmlns="http://www.w3.org/2000/svg" width="400" height="400" x="0px" y="0px" viewBox="0 0 400 400" enable-background="new 0 0 400 400">
<path d="M388.156281,192.115707h-57.735382c-3.618195-16.757797-18.523407-29.323196-36.361298-29.323196
	c-17.837921,0-32.743195,12.565399-36.362305,29.323196H142.288589c-3.619186-16.757797-18.524391-29.323196-36.362793-29.323196
	s-32.743195,12.565399-36.362297,29.323196H11.8428c-4.35354,0-7.88382,3.5298-7.88382,7.883804
	c0,4.352997,3.53028,7.8853,7.88382,7.8853h57.720699c3.619102,16.758789,18.524399,29.323181,36.362297,29.323181
	c17.838402,0,32.743607-12.564392,36.362793-29.323181h115.408707c3.61911,16.758789,18.524384,29.323181,36.362305,29.323181
	c17.837891,0,32.743103-12.564392,36.361298-29.323181h57.735382c4.353516,0,7.884705-3.532303,7.884705-7.8853
	C396.040985,195.645508,392.509796,192.115707,388.156281,192.115707z"/>
</svg>
